<?xml version="1.0" standalone="no"?>
<!DOCTYPE svg PUBLIC "-//W3C//DTD SVG 20010904//EN"
 "http://www.w3.org/TR/2001/REC-SVG-20010904/DTD/svg10.dtd">
<svg version="1.0" xmlns="http://www.w3.org/2000/svg"
 width="512.000000pt" height="512.000000pt" viewBox="0 0 512.000000 512.000000"
 preserveAspectRatio="xMidYMid meet">
<metadata>
Created by potrace 1.14, written by Peter Selinger 2001-2017
</metadata>
<g transform="translate(0.000000,512.000000) scale(0.100000,-0.100000)"
fill="#000000" stroke="none">
<path d="M1970 4941 c-209 -31 -389 -127 -540 -288 -40 -43 -78 -76 -84 -74
-41 14 -163 29 -226 26 -273 -9 -516 -206 -585 -474 -9 -34 -17 -81 -19 -103
-3 -38 -6 -41 -72 -78 -106 -58 -177 -132 -224 -232 -41 -86 -56 -182 -43
-271 10 -71 9 -73 -21 -122 -121 -194 -178 -468 -145 -698 32 -219 137 -436
288 -590 170 -175 394 -289 631 -322 49 -6 223 -7 255 -1 11 2 40 7 65 11 80
13 94 16 99 20 2 3 24 -30 49 -71 136 -228 378 -375 645 -390 208 -12 397 49
557 179 l65 53 50 -13 c101 -26 190 -43 231 -43 18 0 35 -4 38 -9 3 -5 9 -37
12 -72 8 -85 47 -200 90 -265 83 -125 235 -223 495 -319 154 -57 217 -87 290
-143 99 -74 171 -175 203 -287 26 -90 37 -115 61 -141 44 -47 80 -54 268 -51
167 2 175 3 210 27 61 42 77 82 72 181 -6 115 -19 207 -61 405 -30 146 -117
352 -202 478 -43 65 -45 70 -28 80 122 72 256 190 338 301 77 104 151 257 177
372 8 30 31 77 58 115 68 96 117 211 141 328 3 19 6 89 6 155 -1 141 -23 238
-83 352 -37 71 -38 75 -25 113 20 56 26 96 26 171 1 235 -171 440 -413 493
-23 5 -28 13 -34 53 -16 109 -90 286 -170 408 -55 84 -217 244 -300 298 -139
89 -302 155 -425 172 -97 14 -104 14 -183 16 l-78 1 -24 37 c-32 50 -112 124
-165 153 -87 48 -148 63 -255 62 -134 0 -217 -29 -323 -113 -28 -23 -54 -41
-57 -41 -2 0 -28 14 -56 32 -67 41 -174 84 -258 104 -78 18 -244 26 -321 15z"/>
</g>
</svg>
